<svg xmlns="http://www.w3.org/2000/svg" width="67.046" height="70.288" viewBox="56.717 0 67.046 70.288"><g data-name="Gruppe 622" clip-path="url(&quot;#a&quot;)"><path d="M122.801 7.242c2.589 6.057-.223 13.064-6.28 15.653-6.055 2.588-13.063-.223-15.652-6.279-2.588-6.057.223-13.065 6.28-15.653l.004-.002c6.056-2.586 13.061.226 15.648 6.281" fill="#a148ff" fill-rule="evenodd" data-name="Pfad 791"/><path d="M100.791 53.929 78.636 6.687C75.91.942 69.045-1.507 63.3 1.218c-5.71 2.708-8.17 9.514-5.511 15.247l22.155 47.241c2.725 5.746 9.592 8.193 15.336 5.47 5.71-2.71 8.17-9.514 5.511-15.247" fill="#0eba7b" fill-rule="evenodd" data-name="Pfad 792"/></g><defs><clipPath id="a"><path d="M0 0h180.218v154.44H0V0z" data-name="Rechteck 655"/></clipPath></defs></svg>